<svg width="48" height="48" viewBox="0 0 48 48" fill="none" xmlns="http://www.w3.org/2000/svg">
<g clip-path="url(#clip0_53_13027)">
<path d="M23.98 4C12.94 4 4 12.96 4 24C4 35.04 12.94 44 23.98 44C35.04 44 44 35.04 44 24C44 12.96 35.04 4 23.98 4ZM37.84 16H31.94C31.3 13.5 30.38 11.1 29.18 8.88C32.86 10.14 35.92 12.7 37.84 16ZM24 8.08C25.66 10.48 26.96 13.14 27.82 16H20.18C21.04 13.14 22.34 10.48 24 8.08ZM8.52 28C8.2 26.72 8 25.38 8 24C8 22.62 8.2 21.28 8.52 20H15.28C15.12 21.32 15 22.64 15 24C15 25.36 15.12 26.68 15.28 28H8.52ZM10.16 32H16.06C16.7 34.5 17.62 36.9 18.82 39.12C15.14 37.86 12.08 35.32 10.16 32ZM16.06 16H10.16C12.08 12.68 15.14 10.14 18.82 8.88C17.62 11.1 16.7 13.5 16.06 16ZM24 39.92C22.34 37.52 21.04 34.86 20.18 32H27.82C26.96 34.86 25.66 37.52 24 39.92ZM28.68 28H19.32C19.14 26.68 19 25.36 19 24C19 22.64 19.14 21.3 19.32 20H28.68C28.86 21.3 29 22.64 29 24C29 25.36 28.86 26.68 28.68 28ZM29.18 39.12C30.38 36.9 31.3 34.5 31.94 32H37.84C35.92 35.3 32.86 37.86 29.18 39.12ZM32.72 28C32.88 26.68 33 25.36 33 24C33 22.64 32.88 21.32 32.72 20H39.48C39.8 21.28 40 22.62 40 24C40 25.38 39.8 26.72 39.48 28H32.72Z" fill="#674F41"/>
</g>
<defs>
<clipPath id="clip0_53_13027">
<rect width="48" height="48" fill="white"/>
</clipPath>
</defs>
</svg>
