<svg width="812" height="809" viewBox="0 0 812 809" fill="none" xmlns="http://www.w3.org/2000/svg">
<path d="M808.14 353.35C807.51 348.75 809.97 342.43 806.19 338.81C806.34 337.64 806.24 336.05 806.19 334.81C806.07 331.69 804.7 329.3 804.19 326.82C801.83 315.31 799.27 303.63 796.2 291.85C795.08 287.55 794.93 280.41 791.2 276.86C788.86 268.34 784.13 257.15 780.4 248.19C779.4 245.78 777.96 242.84 776.21 240.89C774.97 235.75 771.5 230.09 769.22 224.9C764.01 213.04 758.54 202.74 752.07 191.54C751.28 190.18 751.65 188.38 749.24 188.93C747.24 184.74 745.56 181.16 742.25 177.94C737.59 169.11 730.99 159.94 724.68 152.05C720.44 146.74 704.66 127.55 700.28 124.99C694.04 116.92 686.41 109.86 678.78 103.03C663.94 89.75 648.14 77.94 631.34 67.04C606.96 51.23 580.3 36.28 553.61 26.37C548.83 24.6 518.63 14.51 516.44 16.09C518.63 19.39 520.87 22.82 522.64 26.38C537.86 56.96 542.91 94.87 537.42 128.99C537.14 130.71 536.75 132.3 536.42 133.99C535 141.24 532.88 149.01 530.43 155.97C521.95 179.98 505.23 203.97 488.12 222.57C446.84 267.43 398.71 310.56 355.05 353.78C322.73 385.78 290.53 418.14 258.01 450.08C252.84 455.16 246.21 464.07 240.7 468.27C239.72 469.02 239.14 469.88 237.67 469.72C225.96 451.9 219.82 428.37 225.79 407.38C233.87 378.96 278.66 340.87 299.62 319.84C310.53 308.89 321.5 298.09 332.47 287.19C333.59 286.08 335.73 284.55 335.59 282.87C338.51 281.23 339.41 279.83 341.59 277.87C351.77 268.73 361.66 257.58 371.56 247.89C373.92 245.58 376.21 243.19 378.55 240.9C379.99 239.49 382.11 238.31 382.55 237.9C383.88 236.68 385.52 235.66 385.55 233.9C418.81 198.58 466.5 166.47 475.36 115.38C477.48 103.15 476.85 94.42 473.48 83.02C473.48 82.77 473.48 82.52 473.47 82.28C473.47 79.03 474.28 75.28 471.49 73.03C469.38 65.69 466.62 58.02 463.5 51.05C455.89 34.05 440.6 15.47 423.72 7.18997C402.62 -3.16003 386.35 0.139973 364.07 2.07997C121.15 23.19 -44.82 260.04 10.76 498.27C13.47 509.89 16.04 521.71 20.85 532.64C21.58 537.85 24.14 542.71 25.85 547.63C35.7 576.05 50.09 603.52 67.82 627.56C69.32 631.13 70.82 631.84 71.82 633.55C80.33 648.24 96.26 667.68 108.14 680.17C109.46 681.56 112.93 684.89 114.79 685.51C120.19 693.35 141.14 712.71 149.28 718.47C150.72 719.49 151.88 720.41 153.76 720.48C154.25 724.08 160.62 726.41 163.25 728.47C177.27 739.46 193.03 750.7 208.51 759.37C211.67 761.14 217.12 763.58 220.71 764.45C220.85 764.63 220.38 765.77 220.87 766.24C221.71 767.05 225.44 766.88 226.91 767.54C241.35 774.01 253.48 781.94 269.67 786.43C268.9 789.74 274.3 788.82 276.66 789.43C278.38 789.87 280.49 790.88 282.65 791.43C286.54 793.94 292.14 795.32 296.64 796.43C303.79 798.19 311.34 799.63 318.62 801.43C324.92 802.99 332.11 805.84 339.1 806.44C339.84 806.5 340.83 806.66 340.6 805.93C339.89 805.11 339.42 804.17 338.61 803.43C317.2 783.69 303.61 752.3 290.03 727.14C288.65 724.58 289.31 723.52 286.65 720.5C285.4 715.32 283.43 709.28 281.55 704.32C274.94 686.87 268.56 671.12 264.67 651.56C261.86 637.43 260.09 621.02 259.67 606.6C261.83 597.4 261.14 587.46 262.73 578.18C264.02 570.64 267.43 562.37 269.47 554.89C269.78 553.76 268.62 552.18 268.84 551.78C268.97 551.54 270.78 551.38 271.49 550C274.34 544.43 276.61 536.81 279.66 530.66C280.45 529.08 282.09 527.93 281.66 525.66C285.49 523.17 286.74 517.82 289.65 513.67C306.96 489.03 331.79 466.24 353.04 444.69C391.75 405.44 430.89 366.34 469.84 327.17C500.09 296.75 531.31 267.37 560.42 235.9C561.22 236.39 563.43 233.79 565.88 235.9C566.99 236.86 573.6 245.42 574.66 247.18C584.11 262.87 584.7 279.47 579.4 296.85C573.69 306.97 569.77 317.73 561.68 326.77C501.2 387.06 439.78 448.06 380.22 508.34C371.73 516.94 361.25 525.1 353.64 534.46C343.16 547.35 332.35 563.6 328.6 579.62C323.86 585.92 321.14 613.67 321.56 622.13C322.17 634.38 325.25 653.85 328.6 664.55C329.21 666.5 331.51 671.76 332.6 673.54C332.87 673.98 332.44 674.56 333.6 675.54C333.86 678.18 332.37 681.27 335.6 680.54C335.63 680.87 335.55 681.22 335.6 681.54C336.01 684.04 335.96 687.33 338.6 688.53C339.13 690.25 340.13 692.07 340.6 693.53C341.3 695.69 340.45 698.66 343.6 700.52C345.19 705.24 347.09 709.9 349.22 714.38C351.56 719.29 355.05 725.62 358.59 729.49C359.03 731.03 360 731.53 360.59 732.49L362.14 737.42L367.58 744.48C368.55 746.3 369.69 747.87 370.58 749.48C371.6 751.32 371.78 755.01 374.58 754.48C379.29 763.01 385.43 769.9 392.16 776.88C393.28 778.04 393.52 781.46 397.56 781.45C403.89 792.04 421.34 801.36 432.98 805.48C434.97 806.18 439.24 806.26 439.53 806.43C439.62 806.48 439.13 808.16 440.19 808.44C444.37 809.56 460.66 807.16 466 806.42C491.98 802.81 520.59 795.29 545.45 786.45C551.22 784.4 556.22 781.74 561.44 779.46C601.36 761.97 636.53 740.71 669.54 712.46C773.53 623.47 826.89 489.22 808.18 353.37L808.14 353.35Z" fill="url(#paint0_linear_732_24258)"/>
<defs>
<linearGradient id="paint0_linear_732_24258" x1="79.54" y1="166.73" x2="726.09" y2="636.71" gradientUnits="userSpaceOnUse">
<stop stop-color="#ED902D"/>
<stop offset="1" stop-color="#8EBF39"/>
</linearGradient>
</defs>
</svg>
