<svg width="138" height="32" viewBox="0 0 138 32" fill="none" xmlns="http://www.w3.org/2000/svg">
<g clip-path="url(#clip0_734_58068)">
<path d="M30.2199 14.2044C30.1977 14.0425 30.2843 13.8201 30.1513 13.6926C30.1565 13.6515 30.153 13.5955 30.1513 13.5518C30.147 13.442 30.0988 13.3579 30.0809 13.2706C29.9978 12.8654 29.9077 12.4543 29.7996 12.0397C29.7602 11.8883 29.7549 11.637 29.6236 11.512C29.5412 11.2121 29.3747 10.8182 29.2434 10.5028C29.2082 10.418 29.1576 10.3145 29.096 10.2459C29.0523 10.0649 28.9302 9.86571 28.8499 9.68302C28.6665 9.26555 28.474 8.903 28.2462 8.50876C28.2184 8.46089 28.2315 8.39753 28.1466 8.41689C28.0762 8.2694 28.0171 8.14338 27.9006 8.03004C27.7365 7.71923 27.5042 7.39644 27.2821 7.11872C27.1329 6.93181 26.5774 6.25632 26.4232 6.16621C26.2036 5.88215 25.935 5.63364 25.6664 5.39322C25.1441 4.92577 24.5879 4.51006 23.9966 4.12638C23.1384 3.56987 22.2 3.04364 21.2605 2.6948C21.0922 2.6325 20.0292 2.27733 19.9521 2.33295C20.0292 2.44911 20.108 2.56985 20.1703 2.69516C20.7061 3.77157 20.8838 5.10599 20.6906 6.30701C20.6807 6.36755 20.667 6.42352 20.6554 6.48301C20.6054 6.73821 20.5308 7.01171 20.4445 7.2567C20.1461 8.10185 19.5575 8.94629 18.9552 9.60101C17.5022 11.1801 15.808 12.6982 14.2712 14.2196C13.1335 15.346 12.0001 16.485 10.8554 17.6093C10.6734 17.7881 10.4401 18.1018 10.2461 18.2496C10.2116 18.276 10.1912 18.3063 10.1394 18.3006C9.72726 17.6734 9.51113 16.8451 9.72127 16.1063C10.0057 15.1059 11.5823 13.7651 12.3201 13.0249C12.7041 12.6395 13.0902 12.2593 13.4764 11.8756C13.5158 11.8366 13.5911 11.7827 13.5862 11.7236C13.689 11.6658 13.7207 11.6166 13.7974 11.5476C14.1557 11.2258 14.5039 10.8334 14.8524 10.4923C14.9354 10.411 15.016 10.3268 15.0984 10.2462C15.1491 10.1966 15.2237 10.1551 15.2392 10.1406C15.286 10.0977 15.3437 10.0618 15.3448 9.99982C16.5155 8.75657 18.1942 7.6263 18.5061 5.82794C18.5807 5.39745 18.5585 5.09015 18.4399 4.68887C18.4399 4.68007 18.4399 4.67127 18.4396 4.66283C18.4396 4.54843 18.4681 4.41643 18.3699 4.33723C18.2956 4.07886 18.1984 3.80888 18.0886 3.56354C17.8208 2.96514 17.2825 2.31113 16.6884 2.01967C15.9457 1.65535 15.373 1.77151 14.5887 1.8398C6.03796 2.58287 0.19585 10.9199 2.15226 19.3056C2.24765 19.7146 2.33811 20.1307 2.50742 20.5154C2.53312 20.6988 2.62323 20.8699 2.68342 21.0431C3.03014 22.0434 3.53667 23.0104 4.16076 23.8566C4.21356 23.9823 4.26636 24.0072 4.30156 24.0674C4.60111 24.5845 5.16184 25.2688 5.58001 25.7084C5.62648 25.7574 5.74862 25.8746 5.81409 25.8964C6.00417 26.1724 6.74161 26.8538 7.02814 27.0566C7.07882 27.0925 7.11965 27.1249 7.18583 27.1274C7.20308 27.2541 7.4273 27.3361 7.51988 27.4086C8.01338 27.7954 8.56813 28.1911 9.11302 28.4963C9.22425 28.5586 9.41609 28.6445 9.54246 28.6751C9.54739 28.6814 9.53084 28.7216 9.54809 28.7381C9.57766 28.7666 9.70895 28.7606 9.7607 28.7839C10.269 29.0116 10.696 29.2907 11.2658 29.4488C11.2387 29.5653 11.4288 29.5329 11.5119 29.5544C11.5724 29.5699 11.6467 29.6054 11.7227 29.6248C11.8597 29.7131 12.0568 29.7617 12.2152 29.8008C12.4669 29.8627 12.7326 29.9134 12.9889 29.9768C13.2106 30.0317 13.4637 30.132 13.7098 30.1531C13.7358 30.1552 13.7707 30.1609 13.7626 30.1352C13.7376 30.1063 13.721 30.0732 13.6925 30.0472C12.9389 29.3523 12.4605 28.2474 11.9825 27.3618C11.9339 27.2717 11.9572 27.2344 11.8635 27.1281C11.8195 26.9457 11.7502 26.7331 11.684 26.5585C11.4513 25.9443 11.2268 25.3899 11.0898 24.7014C10.9909 24.204 10.9286 23.6264 10.9138 23.1188C10.9899 22.795 10.9656 22.4451 11.0216 22.1184C11.067 21.853 11.187 21.5619 11.2588 21.2986C11.2697 21.2588 11.2289 21.2032 11.2366 21.1891C11.2412 21.1807 11.3049 21.1751 11.3299 21.1265C11.4302 20.9304 11.5101 20.6622 11.6175 20.4457C11.6453 20.3901 11.703 20.3496 11.6879 20.2697C11.8227 20.1821 11.8667 19.9938 11.9691 19.8477C12.5784 18.9804 13.4525 18.1782 14.2005 17.4196C15.563 16.038 16.9408 14.6617 18.3118 13.2829C19.3766 12.2121 20.4755 11.178 21.5002 10.0702C21.5283 10.0875 21.6061 9.99595 21.6924 10.0702C21.7315 10.104 21.9641 10.4053 22.0014 10.4673C22.3341 11.0196 22.3548 11.6039 22.1683 12.2157C21.9673 12.5719 21.8293 12.9506 21.5445 13.2688C19.4157 15.391 17.2537 17.5382 15.1572 19.6601C14.8583 19.9628 14.4894 20.25 14.2216 20.5795C13.8527 21.0332 13.4722 21.6052 13.3402 22.1691C13.1733 22.3909 13.0776 23.3677 13.0924 23.6655C13.1138 24.0966 13.2222 24.782 13.3402 25.1586C13.3616 25.2273 13.4426 25.4124 13.481 25.4751C13.4905 25.4906 13.4753 25.511 13.5162 25.5455C13.5253 25.6384 13.4729 25.7472 13.5866 25.7215C13.5876 25.7331 13.5848 25.7454 13.5866 25.7567C13.601 25.8447 13.5992 25.9605 13.6922 26.0027C13.7108 26.0633 13.746 26.1273 13.7626 26.1787C13.7872 26.2548 13.7573 26.3593 13.8682 26.4248C13.9241 26.5909 13.991 26.7549 14.066 26.9126C14.1484 27.0855 14.2712 27.3083 14.3958 27.4445C14.4113 27.4987 14.4454 27.5163 14.4662 27.5501L14.5208 27.7236L14.7123 27.9721C14.7464 28.0362 14.7865 28.0915 14.8179 28.1481C14.8538 28.2129 14.8601 28.3428 14.9587 28.3241C15.1244 28.6244 15.3406 28.8669 15.5775 29.1126C15.6169 29.1535 15.6253 29.2738 15.7675 29.2735C15.9904 29.6463 16.6046 29.9743 17.0143 30.1193C17.0844 30.144 17.2347 30.1468 17.2449 30.1528C17.2481 30.1545 17.2308 30.2137 17.2681 30.2235C17.4153 30.263 17.9887 30.1785 18.1766 30.1524C19.0911 30.0254 20.0982 29.7607 20.9732 29.4495C21.1764 29.3773 21.3524 29.2837 21.5361 29.2034C22.9413 28.5878 24.1792 27.8394 25.3412 26.8451C29.0016 23.7126 30.8799 18.987 30.2213 14.2051L30.2199 14.2044Z" fill="url(#paint0_linear_734_58068)"/>
</g>
<path d="M79.1162 6.61179V2.38501H82.2503V3.10004H79.9696V4.03709H82.0917V4.74924H79.9696V5.89964H82.331V6.61179H79.1162Z" fill="#EFEFEF"/>
<path d="M74.2559 2.38501H75.8157C76.1674 2.38501 76.4356 2.41192 76.6201 2.46574C76.868 2.53878 77.0804 2.66852 77.2573 2.85497C77.4341 3.04142 77.5687 3.27015 77.6609 3.54117C77.7532 3.81027 77.7993 4.1428 77.7993 4.53876C77.7993 4.88667 77.7561 5.18652 77.6696 5.43832C77.5639 5.74586 77.413 5.99478 77.2169 6.18507C77.0689 6.32923 76.869 6.44168 76.6172 6.52241C76.4288 6.58199 76.177 6.61179 75.8618 6.61179H74.2559V2.38501ZM75.1093 3.10004V5.89964H75.7465C75.9848 5.89964 76.1569 5.88618 76.2626 5.85927C76.401 5.82467 76.5153 5.76605 76.6057 5.6834C76.6979 5.60074 76.7729 5.46523 76.8306 5.27686C76.8882 5.08657 76.9171 4.82804 76.9171 4.50128C76.9171 4.17452 76.8882 3.92368 76.8306 3.74877C76.7729 3.57385 76.6922 3.43738 76.5884 3.33935C76.4846 3.24132 76.3529 3.17501 76.1934 3.14041C76.0742 3.1135 75.8407 3.10004 75.4928 3.10004H75.1093Z" fill="#EFEFEF"/>
<path d="M66.666 4.52441C66.666 4.09385 66.7304 3.73249 66.8592 3.44032C66.9553 3.22504 67.086 3.03187 67.2513 2.8608C67.4185 2.68973 67.6011 2.56287 67.7991 2.48021C68.0624 2.36873 68.3661 2.31299 68.7102 2.31299C69.333 2.31299 69.8308 2.50616 70.2037 2.89251C70.5785 3.27886 70.7659 3.8161 70.7659 4.50422C70.7659 5.18658 70.5804 5.72094 70.2095 6.10729C69.8385 6.49171 69.3426 6.68393 68.7217 6.68393C68.0932 6.68393 67.5934 6.49267 67.2225 6.11017C66.8515 5.72574 66.666 5.19715 66.666 4.52441ZM67.5454 4.49557C67.5454 4.97419 67.6559 5.33747 67.877 5.58543C68.098 5.83146 68.3786 5.95448 68.7189 5.95448C69.0591 5.95448 69.3378 5.83242 69.555 5.58831C69.7741 5.34227 69.8837 4.97419 69.8837 4.48404C69.8837 3.99966 69.777 3.6383 69.5636 3.39996C69.3522 3.16161 69.0706 3.04244 68.7189 3.04244C68.3671 3.04244 68.0836 3.16353 67.8683 3.40572C67.653 3.64599 67.5454 4.00927 67.5454 4.49557Z" fill="#EFEFEF"/>
<path d="M61.9844 6.61179V2.38501H63.7806C64.2323 2.38501 64.56 2.42345 64.7638 2.50034C64.9695 2.5753 65.1338 2.70985 65.2568 2.90399C65.3798 3.09812 65.4413 3.32013 65.4413 3.57001C65.4413 3.88716 65.3481 4.14953 65.1617 4.35712C64.9752 4.56279 64.6965 4.69253 64.3255 4.74635C64.5101 4.85399 64.6619 4.97221 64.7811 5.10099C64.9022 5.22977 65.0646 5.45851 65.2683 5.78719L65.7844 6.61179H64.7638L64.1468 5.69205C63.9277 5.36336 63.7777 5.15673 63.697 5.07216C63.6163 4.98566 63.5307 4.92703 63.4404 4.89628C63.3501 4.8636 63.2069 4.84727 63.0108 4.84727H62.8378V6.61179H61.9844ZM62.8378 4.1726H63.4692C63.8786 4.1726 64.1343 4.1553 64.2362 4.1207C64.338 4.0861 64.4178 4.02651 64.4755 3.94194C64.5331 3.85737 64.562 3.75165 64.562 3.62479C64.562 3.48255 64.5235 3.36818 64.4466 3.28169C64.3717 3.19327 64.265 3.13753 64.1266 3.11446C64.0574 3.10485 63.8498 3.10004 63.5038 3.10004H62.8378V4.1726Z" fill="#EFEFEF"/>
<path d="M58.7327 6.61179V3.10004H57.4785V2.38501H60.8374V3.10004H59.5861V6.61179H58.7327Z" fill="#EFEFEF"/>
<path d="M52.9316 6.61179V2.38501H53.762L55.4919 5.20767V2.38501H56.2848V6.61179H55.4285L53.7245 3.85544V6.61179H52.9316Z" fill="#EFEFEF"/>
<path d="M48.3945 6.61179V2.38501H51.5286V3.10004H49.248V4.03709H51.37V4.74924H49.248V5.89964H51.6093V6.61179H48.3945Z" fill="#EFEFEF"/>
<path d="M46.2411 5.0578L47.0686 5.32017C46.9417 5.78148 46.7303 6.12458 46.4343 6.34947C46.1402 6.57244 45.7663 6.68393 45.3127 6.68393C44.7514 6.68393 44.2901 6.49267 43.9288 6.11017C43.5674 5.72574 43.3867 5.201 43.3867 4.53594C43.3867 3.83244 43.5684 3.28655 43.9316 2.89828C44.2949 2.50809 44.7726 2.31299 45.3646 2.31299C45.8817 2.31299 46.3016 2.4658 46.6246 2.77142C46.8168 2.9521 46.9609 3.21159 47.057 3.54988L46.2123 3.75171C46.1623 3.53258 46.0575 3.35959 45.898 3.23273C45.7404 3.10587 45.5482 3.04244 45.3213 3.04244C45.008 3.04244 44.7534 3.15488 44.5573 3.37977C44.3632 3.60466 44.2661 3.96891 44.2661 4.47251C44.2661 5.00686 44.3622 5.38745 44.5544 5.61426C44.7466 5.84107 44.9965 5.95448 45.304 5.95448C45.5309 5.95448 45.726 5.8824 45.8893 5.73823C46.0527 5.59407 46.17 5.36726 46.2411 5.0578Z" fill="#EFEFEF"/>
<path d="M136.864 29.6118H135.936L135.567 28.6517H133.877L133.528 29.6118H132.623L134.269 25.385H135.172L136.864 29.6118ZM135.293 27.9395L134.71 26.3711L134.14 27.9395H135.293Z" fill="#EFEFEF"/>
<path d="M129.966 29.6118V25.385H130.819V29.6118H129.966Z" fill="#EFEFEF"/>
<path d="M124.316 29.6118V25.385H125.147L126.877 28.2077V25.385H127.67V29.6118H126.813L125.109 26.8554V29.6118H124.316Z" fill="#EFEFEF"/>
<path d="M118.121 27.5243C118.121 27.0938 118.185 26.7324 118.314 26.4402C118.41 26.2249 118.541 26.0318 118.706 25.8607C118.874 25.6896 119.056 25.5628 119.254 25.4801C119.518 25.3686 119.821 25.3129 120.165 25.3129C120.788 25.3129 121.286 25.5061 121.659 25.8924C122.034 26.2788 122.221 26.816 122.221 27.5041C122.221 28.1865 122.036 28.7208 121.665 29.1072C121.294 29.4916 120.798 29.6838 120.177 29.6838C119.548 29.6838 119.049 29.4926 118.678 29.1101C118.307 28.7256 118.121 28.1971 118.121 27.5243ZM119 27.4955C119 27.9741 119.111 28.3374 119.332 28.5853C119.553 28.8314 119.834 28.9544 120.174 28.9544C120.514 28.9544 120.793 28.8323 121.01 28.5882C121.229 28.3422 121.339 27.9741 121.339 27.4839C121.339 26.9996 121.232 26.6382 121.019 26.3999C120.807 26.1615 120.526 26.0423 120.174 26.0423C119.822 26.0423 119.539 26.1634 119.323 26.4056C119.108 26.6459 119 27.0092 119 27.4955ZM119.162 25.1428L119.767 24.2922H120.517L121.114 25.1428H120.462L120.128 24.7132L119.816 25.1428H119.162Z" fill="#EFEFEF"/>
<path d="M112.901 29.6118V28.842L115.121 26.1H113.152V25.385H116.246V26.0481L113.931 28.8996H116.335V29.6118H112.901Z" fill="#EFEFEF"/>
<path d="M111.395 29.6118H110.466L110.097 28.6517H108.408L108.059 29.6118H107.153L108.8 25.385H109.702L111.395 29.6118ZM109.823 27.9395L109.241 26.3711L108.67 27.9395H109.823Z" fill="#EFEFEF"/>
<path d="M101.235 29.6118V25.385H102.513L103.28 28.2682L104.038 25.385H105.318V29.6118H104.525V26.2846L103.686 29.6118H102.864L102.028 26.2846V29.6118H101.235Z" fill="#EFEFEF"/>
<path d="M99.375 29.6118H98.4466L98.0775 28.6517H96.388L96.0391 29.6118H95.1338L96.7801 25.385H97.6825L99.375 29.6118ZM97.8036 27.9395L97.2212 26.3711L96.6504 27.9395H97.8036Z" fill="#EFEFEF"/>
<path d="M91.0683 29.6118H90.1399L89.7709 28.6517H88.0813L87.7325 29.6118H86.8271L88.4735 25.385H89.3759L91.0683 29.6118ZM89.497 27.9395L88.9146 26.3711L88.3437 27.9395H89.497Z" fill="#EFEFEF"/>
<path d="M81.5693 25.385H83.1291C83.4809 25.385 83.749 25.4119 83.9336 25.4657C84.1815 25.5388 84.3939 25.6685 84.5708 25.855C84.7476 26.0414 84.8821 26.2702 84.9744 26.5412C85.0667 26.8103 85.1128 27.1428 85.1128 27.5388C85.1128 27.8867 85.0695 28.1865 84.983 28.4383C84.8773 28.7459 84.7264 28.9948 84.5304 29.1851C84.3824 29.3292 84.1825 29.4417 83.9307 29.5224C83.7423 29.582 83.4905 29.6118 83.1753 29.6118H81.5693V25.385ZM82.4228 26.1V28.8996H83.06C83.2983 28.8996 83.4703 28.8862 83.576 28.8593C83.7144 28.8247 83.8288 28.766 83.9191 28.6834C84.0114 28.6007 84.0864 28.4652 84.144 28.2769C84.2017 28.0866 84.2305 27.828 84.2305 27.5013C84.2305 27.1745 84.2017 26.9237 84.144 26.7488C84.0864 26.5739 84.0056 26.4374 83.9018 26.3394C83.7981 26.2413 83.6664 26.175 83.5068 26.1404C83.3877 26.1135 83.1541 26.1 82.8062 26.1H82.4228Z" fill="#EFEFEF"/>
<path d="M72.9395 28.2366L73.7698 28.1558C73.8198 28.4345 73.9207 28.6392 74.0726 28.77C74.2263 28.9007 74.433 28.966 74.6924 28.966C74.9673 28.966 75.1739 28.9083 75.3123 28.793C75.4526 28.6758 75.5228 28.5393 75.5228 28.3836C75.5228 28.2837 75.493 28.1991 75.4334 28.1299C75.3758 28.0588 75.2739 27.9973 75.1278 27.9454C75.0279 27.9108 74.8001 27.8492 74.4445 27.7608C73.987 27.6474 73.666 27.5081 73.4815 27.3428C73.222 27.1102 73.0923 26.8267 73.0923 26.4922C73.0923 26.2769 73.1528 26.0761 73.2739 25.8896C73.3969 25.7013 73.5728 25.5581 73.8015 25.46C74.0322 25.362 74.3099 25.313 74.6348 25.313C75.1653 25.313 75.5641 25.4293 75.8313 25.6619C76.1004 25.8944 76.2417 26.2049 76.2551 26.5931L75.4017 26.6306C75.3652 26.4134 75.2864 26.2577 75.1653 26.1635C75.0461 26.0674 74.8664 26.0194 74.6261 26.0194C74.3782 26.0194 74.184 26.0703 74.0437 26.1722C73.9534 26.2375 73.9082 26.325 73.9082 26.4346C73.9082 26.5345 73.9505 26.62 74.0351 26.6912C74.1427 26.7815 74.4041 26.8757 74.8193 26.9737C75.2345 27.0717 75.5411 27.1736 75.739 27.2793C75.9389 27.3831 76.0946 27.5263 76.2061 27.7089C76.3195 27.8896 76.3762 28.1135 76.3762 28.3807C76.3762 28.6229 76.309 28.8497 76.1744 29.0612C76.0399 29.2726 75.8496 29.4302 75.6035 29.534C75.3575 29.6359 75.0509 29.6868 74.6838 29.6868C74.1494 29.6868 73.7391 29.5638 73.4527 29.3178C73.1663 29.0698 72.9952 28.7094 72.9395 28.2366Z" fill="#EFEFEF"/>
<path d="M71.2832 29.6118H70.3548L69.9857 28.6517H68.2962L67.9473 29.6118H67.042L68.6883 25.385H69.5907L71.2832 29.6118ZM69.7118 27.9395L69.1294 26.3711L68.5586 27.9395H69.7118Z" fill="#EFEFEF"/>
<path d="M63.6329 29.6118L62.1221 25.385H63.0476L64.1172 28.5133L65.1523 25.385H66.0576L64.544 29.6118H63.6329Z" fill="#EFEFEF"/>
<path d="M59.4678 29.6118V25.385H60.3212V29.6118H59.4678Z" fill="#EFEFEF"/>
<path d="M55.4183 29.6118V26.1H54.1641V25.385H57.523V26.1H56.2717V29.6118H55.4183Z" fill="#EFEFEF"/>
<path d="M53.0322 29.6118H52.1038L51.7348 28.6517H50.0452L49.6963 29.6118H48.791L50.4373 25.385H51.3398L53.0322 29.6118ZM51.4609 27.9395L50.8785 26.3711L50.3076 27.9395H51.4609Z" fill="#EFEFEF"/>
<path d="M43.5449 29.6118V25.385H44.3753L46.1052 28.2077V25.385H46.8981V29.6118H46.0418L44.3378 26.8554V29.6118H43.5449Z" fill="#EFEFEF"/>
<path d="M128.126 18.0706L130.348 17.8546C130.481 18.6003 130.751 19.148 131.158 19.4978C131.569 19.8475 132.122 20.0223 132.816 20.0223C133.552 20.0223 134.105 19.8681 134.475 19.5595C134.85 19.2457 135.038 18.8806 135.038 18.464C135.038 18.1966 134.958 17.9703 134.799 17.7851C134.645 17.5948 134.372 17.4303 133.981 17.2914C133.714 17.1988 133.104 17.0343 132.153 16.7977C130.929 16.4942 130.07 16.1214 129.576 15.6791C128.882 15.0568 128.535 14.2982 128.535 13.4033C128.535 12.8273 128.697 12.2898 129.021 11.791C129.35 11.2869 129.821 10.9038 130.433 10.6415C131.05 10.3792 131.793 10.248 132.662 10.248C134.082 10.248 135.149 10.5592 135.864 11.1815C136.584 11.8038 136.962 12.6344 136.998 13.6733L134.714 13.7736C134.616 13.1924 134.406 12.7758 134.082 12.5238C133.763 12.2667 133.282 12.1381 132.639 12.1381C131.976 12.1381 131.456 12.2744 131.081 12.547C130.839 12.7218 130.718 12.9558 130.718 13.249C130.718 13.5164 130.831 13.7453 131.057 13.9356C131.345 14.1773 132.045 14.4293 133.156 14.6916C134.267 14.9539 135.087 15.2265 135.617 15.5093C136.152 15.7871 136.568 16.1702 136.867 16.6588C137.17 17.1423 137.322 17.7414 137.322 18.4563C137.322 19.1043 137.142 19.7112 136.782 20.2769C136.422 20.8427 135.912 21.2644 135.254 21.5421C134.596 21.8147 133.776 21.951 132.793 21.951C131.364 21.951 130.265 21.6218 129.499 20.9635C128.733 20.3001 128.275 19.3358 128.126 18.0706Z" fill="#EFEFEF"/>
<path d="M116.587 21.7504V10.4409H124.973V12.3541H118.87V14.8613H124.548V16.7668H118.87V19.8449H125.189V21.7504H116.587Z" fill="#EFEFEF"/>
<path d="M107.894 21.7504V12.3541H104.538V10.4409H113.525V12.3541H110.177V21.7504H107.894Z" fill="#EFEFEF"/>
<path d="M92.374 21.7504V10.4409H94.5958L99.2245 17.9934V10.4409H101.346V21.7504H99.0548L94.4955 14.3753V21.7504H92.374Z" fill="#EFEFEF"/>
<path d="M80.2334 21.7504V10.4409H88.6191V12.3541H82.5169V14.8613H88.1948V16.7668H82.5169V19.8449H88.8351V21.7504H80.2334Z" fill="#EFEFEF"/>
<path d="M65.4609 21.7504V10.4409H68.8785L70.9305 18.1554L72.9594 10.4409H76.3847V21.7504H74.2632V12.8478L72.0183 21.7504H69.8196L67.5824 12.8478V21.7504H65.4609Z" fill="#EFEFEF"/>
<path d="M53.374 21.7504V10.4409H61.7597V12.3541H55.6575V14.8613H61.3354V16.7668H55.6575V19.8449H61.9757V21.7504H53.374Z" fill="#EFEFEF"/>
<path d="M40.6777 18.0706L42.8995 17.8546C43.0332 18.6003 43.3032 19.148 43.7095 19.4978C44.121 19.8475 44.6739 20.0223 45.3682 20.0223C46.1036 20.0223 46.6565 19.8681 47.0268 19.5595C47.4022 19.2457 47.5899 18.8806 47.5899 18.464C47.5899 18.1966 47.5102 17.9703 47.3508 17.7851C47.1965 17.5948 46.9239 17.4303 46.5331 17.2914C46.2656 17.1988 45.6562 17.0343 44.7047 16.7977C43.4807 16.4942 42.6218 16.1214 42.1281 15.6791C41.4338 15.0568 41.0866 14.2982 41.0866 13.4033C41.0866 12.8273 41.2486 12.2898 41.5726 11.791C41.9018 11.2869 42.3724 10.9038 42.9844 10.6415C43.6015 10.3792 44.3447 10.248 45.2139 10.248C46.6333 10.248 47.7005 10.5592 48.4154 11.1815C49.1354 11.8038 49.5134 12.6344 49.5494 13.6733L47.2659 13.7736C47.1682 13.1924 46.9574 12.7758 46.6333 12.5238C46.3145 12.2667 45.8336 12.1381 45.1907 12.1381C44.5273 12.1381 44.0078 12.2744 43.6324 12.547C43.3907 12.7218 43.2698 12.9558 43.2698 13.249C43.2698 13.5164 43.383 13.7453 43.6093 13.9356C43.8973 14.1773 44.5967 14.4293 45.7076 14.6916C46.8185 14.9539 47.6388 15.2265 48.1685 15.5093C48.7034 15.7871 49.12 16.1702 49.4183 16.6588C49.7217 17.1423 49.8734 17.7414 49.8734 18.4563C49.8734 19.1043 49.6934 19.7112 49.3334 20.2769C48.9734 20.8427 48.4643 21.2644 47.806 21.5421C47.1476 21.8147 46.3273 21.951 45.345 21.951C43.9153 21.951 42.8172 21.6218 42.0509 20.9635C41.2846 20.3001 40.8269 19.3358 40.6777 18.0706Z" fill="#EFEFEF"/>
<defs>
<linearGradient id="paint0_linear_734_58068" x1="4.5733" y1="7.63545" x2="27.3317" y2="24.1787" gradientUnits="userSpaceOnUse">
<stop stop-color="#ED902D"/>
<stop offset="1" stop-color="#8EBF39"/>
</linearGradient>
<clipPath id="clip0_734_58068">
<rect width="28.5763" height="28.4668" fill="white" transform="translate(1.77344 1.7666)"/>
</clipPath>
</defs>
</svg>
