<svg width="48" height="48" viewBox="0 0 48 48" fill="none" xmlns="http://www.w3.org/2000/svg">
<g clip-path="url(#clip0_53_13033)">
<path d="M30.98 19.26C30.62 13.68 28.36 8.24 24.12 4C19.84 8.28 17.48 13.72 17.02 19.26C19.58 20.62 21.94 22.38 24 24.52C26.06 22.4 28.42 20.64 30.98 19.26ZM24.1 10.38C25.36 12.44 26.24 14.74 26.7 17.14C25.76 17.74 24.88 18.4 24.02 19.1C23.18 18.42 22.28 17.76 21.36 17.16C21.86 14.76 22.78 12.46 24.1 10.38ZM24 30.9C22.36 28.4 20.28 26.22 17.88 24.5C17.62 24.32 17.34 24.18 17.08 23.98C17.34 24.16 17.62 24.32 17.86 24.48C13.96 21.66 9.18 20 4 20C4 30.64 10.72 39.64 20.06 42.98C21.32 43.44 22.64 43.78 24 44C25.36 43.76 26.66 43.42 27.94 42.98C37.28 39.64 44 30.64 44 20C35.64 20 28.3 24.34 24 30.9ZM26.64 39.2C25.76 39.5 24.88 39.74 23.98 39.94C23.1 39.76 22.24 39.52 21.42 39.22C14.84 36.86 10.02 31.24 8.52 24.52C10.72 25.04 12.82 25.94 14.76 27.18L14.72 27.2C14.98 27.38 15.24 27.56 15.5 27.7L15.64 27.78C17.62 29.22 19.32 31 20.66 33.08L24 38.2L27.34 33.1C28.72 31 30.44 29.2 32.4 27.78L32.54 27.68C32.72 27.58 32.9 27.46 33.08 27.34L33.06 27.3C35.02 26 37.2 25.04 39.48 24.5C37.98 31.24 33.18 36.86 26.64 39.2ZM17.98 24.56C17.94 24.54 17.9 24.5 17.88 24.48C17.88 24.48 17.9 24.48 17.9 24.5C17.92 24.52 17.94 24.54 17.98 24.56Z" fill="#674F41"/>
</g>
<defs>
<clipPath id="clip0_53_13033">
<rect width="48" height="48" fill="white"/>
</clipPath>
</defs>
</svg>
